<?xml version="1.0" encoding="UTF-8"?>
<svg width="512px" height="512px" viewBox="0 0 512 512" version="1.1" xmlns="http://www.w3.org/2000/svg" xmlns:xlink="http://www.w3.org/1999/xlink">
    <title>favicon</title>
    <g id="favicon" stroke="none" fill="none" fill-rule="nonzero">
        <path d="M115.239774,423 L115.239774,314.052632 C105.279267,297.710526 97.5825106,280.384868 92.1495063,262.075658 C86.7165021,243.766447 84,225.078947 84,206.013158 C84,187.552632 86.3392102,169.394737 91.0176305,151.539474 C95.6960508,133.684211 101.204513,116.131579 107.543018,98.8815789 C109.957687,92.5263158 113.881523,87.4572368 119.314528,83.6743421 C124.747532,79.8914474 130.784203,78 137.424542,78 C146.781382,78 154.779972,81.1776316 161.42031,87.5328947 C168.060649,93.8881579 170.777151,101.453947 169.569817,110.230263 L164.589563,151.539474 C162.778561,166.065789 164.061354,179.835526 168.437941,192.848684 C172.814528,205.861842 179.379408,217.286184 188.132581,227.121711 C196.885755,236.957237 207.449929,244.825658 219.825106,250.726974 C232.200282,256.628289 245.631876,259.578947 260.119887,259.578947 C278.229901,259.578947 296.415374,261.470395 314.676305,265.253289 C332.937236,269.036184 348.858956,274.407895 362.441467,281.368421 C376.023977,288.328947 386.512694,297.180921 393.907616,307.924342 C401.302539,318.667763 405,331.907895 405,347.644737 L405,423 L115.239774,423 Z M208.959097,220.085526 C194.77292,205.861842 187.679831,188.763158 187.679831,168.789474 C187.679831,148.815789 194.77292,131.717105 208.959097,117.493421 C223.145275,103.269737 240.198872,96.1578947 260.119887,96.1578947 C280.040903,96.1578947 297.094499,103.269737 311.280677,117.493421 C325.466855,131.717105 332.559944,148.815789 332.559944,168.789474 C332.559944,188.763158 325.466855,205.861842 311.280677,220.085526 C297.094499,234.309211 280.040903,241.421053 260.119887,241.421053 C240.198872,241.421053 223.145275,234.309211 208.959097,220.085526 Z" id="raised-hand" fill="#5D465F"></path>
    </g>
</svg>