<?xml version="1.0" encoding="UTF-8"?>
<svg width="512px" height="512px" viewBox="0 0 512 512" version="1.1" xmlns="http://www.w3.org/2000/svg" xmlns:xlink="http://www.w3.org/1999/xlink">
    <title>favicon</title>
    <defs>
        <path d="M146.141456,-7.25467311e-15 L365.858544,7.25467311e-15 C416.675112,-4.215174e-15 435.102427,5.29105984 453.680205,15.2265641 C472.257983,25.1620684 486.837932,39.7420171 496.773436,58.3197949 C506.70894,76.8975727 512,95.3248882 512,146.141456 L512,365.858544 C512,416.675112 506.70894,435.102427 496.773436,453.680205 C486.837932,472.257983 472.257983,486.837932 453.680205,496.773436 C435.102427,506.70894 416.675112,512 365.858544,512 L146.141456,512 C95.3248882,512 76.8975727,506.70894 58.3197949,496.773436 C39.7420171,486.837932 25.1620684,472.257983 15.2265641,453.680205 C5.29105984,435.102427 0,416.675112 0,365.858544 L7.25467311e-15,146.141456 C-4.215174e-15,95.3248882 5.29105984,76.8975727 15.2265641,58.3197949 C25.1620684,39.7420171 39.7420171,25.1620684 58.3197949,15.2265641 C76.8975727,5.29105984 95.3248882,4.215174e-15 146.141456,-7.25467311e-15 Z" id="path-1"></path>
    </defs>
    <g id="favicon" stroke="none" fill="none">
        <g id="light" fill-rule="evenodd">
            <use fill="#854D4D" xlink:href="#path-1"></use>
            <use fill="#F9F6F3" xlink:href="#path-1"></use>
        </g>
        <path d="M115.239774,423 L115.239774,314.052632 C105.279267,297.710526 97.5825106,280.384868 92.1495063,262.075658 C86.7165021,243.766447 84,225.078947 84,206.013158 C84,187.552632 86.3392102,169.394737 91.0176305,151.539474 C95.6960508,133.684211 101.204513,116.131579 107.543018,98.8815789 C109.957687,92.5263158 113.881523,87.4572368 119.314528,83.6743421 C124.747532,79.8914474 130.784203,78 137.424542,78 C146.781382,78 154.779972,81.1776316 161.42031,87.5328947 C168.060649,93.8881579 170.777151,101.453947 169.569817,110.230263 L164.589563,151.539474 C162.778561,166.065789 164.061354,179.835526 168.437941,192.848684 C172.814528,205.861842 179.379408,217.286184 188.132581,227.121711 C196.885755,236.957237 207.449929,244.825658 219.825106,250.726974 C232.200282,256.628289 245.631876,259.578947 260.119887,259.578947 C278.229901,259.578947 296.415374,261.470395 314.676305,265.253289 C332.937236,269.036184 348.858956,274.407895 362.441467,281.368421 C376.023977,288.328947 386.512694,297.180921 393.907616,307.924342 C401.302539,318.667763 405,331.907895 405,347.644737 L405,423 L115.239774,423 Z M151.459803,386.684211 L368.779972,386.684211 L368.779972,347.644737 C368.779972,340.381579 366.96897,333.950658 363.346968,328.351974 C359.724965,322.753289 354.593794,318.289474 347.953456,314.960526 C335.578279,308.907895 321.241185,304.217105 304.942172,300.888158 C288.643159,297.559211 273.702398,295.894737 260.119887,295.894737 C240.198872,295.894737 221.711566,291.809211 204.657969,283.638158 C187.604372,275.467105 173.116361,264.496711 161.193935,250.726974 C149.271509,236.957237 140.291961,221.069079 134.255289,203.0625 C128.218618,185.055921 126.407616,166.368421 128.822285,147 C125.803949,156.078947 123.615656,165.763158 122.257405,176.052632 C120.899154,186.342105 120.220028,196.328947 120.220028,206.013158 C120.220028,223.565789 123.313822,240.4375 129.50141,256.628289 C135.688999,272.819079 143.008463,288.631579 151.459803,304.065789 L151.459803,386.684211 Z M208.959097,220.085526 C194.77292,205.861842 187.679831,188.763158 187.679831,168.789474 C187.679831,148.815789 194.77292,131.717105 208.959097,117.493421 C223.145275,103.269737 240.198872,96.1578947 260.119887,96.1578947 C280.040903,96.1578947 297.094499,103.269737 311.280677,117.493421 C325.466855,131.717105 332.559944,148.815789 332.559944,168.789474 C332.559944,188.763158 325.466855,205.861842 311.280677,220.085526 C297.094499,234.309211 280.040903,241.421053 260.119887,241.421053 C240.198872,241.421053 223.145275,234.309211 208.959097,220.085526 Z M285.700282,194.4375 C292.793371,187.325658 296.339915,178.776316 296.339915,168.789474 C296.339915,158.802632 292.793371,150.253289 285.700282,143.141447 C278.607193,136.029605 270.080395,132.473684 260.119887,132.473684 C250.159379,132.473684 241.632581,136.029605 234.539492,143.141447 C227.446403,150.253289 223.899859,158.802632 223.899859,168.789474 C223.899859,178.776316 227.446403,187.325658 234.539492,194.4375 C241.632581,201.549342 250.159379,205.105263 260.119887,205.105263 C270.080395,205.105263 278.607193,201.549342 285.700282,194.4375 Z" id="raised-hand" fill="#5D465F" fill-rule="nonzero"></path>
    </g>
</svg>