<?xml version="1.0" encoding="UTF-8"?>
<svg width="512px" height="512px" viewBox="0 0 512 512" version="1.1" xmlns="http://www.w3.org/2000/svg" xmlns:xlink="http://www.w3.org/1999/xlink">
    <title>favicon</title>
    <g id="favicon" stroke="none" fill="none" fill-rule="nonzero">
        <path d="M239.65,474 C235.29,474 231.475,472.365 228.205,469.095 C224.935,465.825 223.3,462.01 223.3,457.65 C223.3,453.29 224.935,449.475 228.205,446.205 C231.475,442.935 235.29,441.3 239.65,441.3 L239.65,407.51 C224.39,405.693333 210.038333,402.06 196.595,396.61 C183.151667,391.16 170.98,383.893333 160.08,374.81 L136.645,398.79 C139.915,402.06 141.55,405.875 141.55,410.235 C141.55,414.595 139.915,418.41 136.645,421.68 C133.375,424.95 129.56,426.585 125.2,426.585 C120.84,426.585 117.025,424.95 113.755,421.68 L90.32,398.79 C87.05,395.52 85.415,391.614167 85.415,387.0725 C85.415,382.530833 87.05,378.625 90.32,375.355 C93.59,372.085 97.405,370.540833 101.765,370.7225 C106.125,370.904167 109.94,372.448333 113.21,375.355 L137.19,351.375 C128.106667,340.111667 120.84,327.94 115.39,314.86 C109.94,301.78 106.306667,287.61 104.49,272.35 L70.7,272.35 C70.7,276.71 69.065,280.525 65.795,283.795 C62.525,287.065 58.71,288.7 54.35,288.7 C49.99,288.7 46.175,287.065 42.905,283.795 C39.635,280.525 38,276.71 38,272.35 L38,239.65 C38,235.29 39.635,231.475 42.905,228.205 C46.175,224.935 49.99,223.3 54.35,223.3 C58.71,223.3 62.525,224.935 65.795,228.205 C69.065,231.475 70.7,235.29 70.7,239.65 L104.49,239.65 C106.306667,224.39 110.030833,210.22 115.6625,197.14 C121.294167,184.06 128.47,171.888333 137.19,160.625 L113.21,136.645 C109.94,139.551667 106.125,141.095833 101.765,141.2775 C97.405,141.459167 93.59,139.915 90.32,136.645 C87.05,133.375 85.415,129.469167 85.415,124.9275 C85.415,120.385833 87.05,116.48 90.32,113.21 L113.21,90.32 C116.48,87.05 120.385833,85.415 124.9275,85.415 C129.469167,85.415 133.375,87.05 136.645,90.32 C139.915,93.59 141.55,97.4958333 141.55,102.0375 C141.55,106.579167 139.915,110.485 136.645,113.755 L160.08,137.19 C171.343333,128.106667 183.515,120.84 196.595,115.39 C209.675,109.94 223.845,106.306667 239.105,104.49 L239.105,70.7 C234.745,70.7 231.020833,69.065 227.9325,65.795 C224.844167,62.525 223.3,58.71 223.3,54.35 C223.3,49.99 224.935,46.175 228.205,42.905 C231.475,39.635 235.29,38 239.65,38 L272.35,38 C276.71,38 280.525,39.635 283.795,42.905 C287.065,46.175 288.7,49.99 288.7,54.35 C288.7,58.71 287.065,62.525 283.795,65.795 C280.525,69.065 276.71,70.7 272.35,70.7 L272.35,104.49 C287.61,106.306667 301.78,109.94 314.86,115.39 C327.94,120.84 340.111667,128.106667 351.375,137.19 L375.355,113.21 C372.085,109.94 370.45,106.125 370.45,101.765 C370.45,97.405 372.085,93.59 375.355,90.32 C378.625,87.05 382.530833,85.415 387.0725,85.415 C391.614167,85.415 395.52,87.05 398.79,90.32 L421.68,113.755 C424.95,117.025 426.585,120.84 426.585,125.2 C426.585,129.56 424.95,133.375 421.68,136.645 C418.41,139.915 414.504167,141.55 409.9625,141.55 C405.420833,141.55 401.515,139.915 398.245,136.645 L374.81,160.08 C383.893333,171.343333 391.16,183.605833 396.61,196.8675 C402.06,210.129167 405.693333,224.39 407.51,239.65 L441.3,239.65 C441.3,235.29 442.935,231.475 446.205,228.205 C449.475,224.935 453.29,223.3 457.65,223.3 C462.01,223.3 465.825,224.935 469.095,228.205 C472.365,231.475 474,235.29 474,239.65 L474,272.35 C474,276.71 472.365,280.525 469.095,283.795 C465.825,287.065 462.01,288.7 457.65,288.7 C453.29,288.7 449.475,287.065 446.205,283.795 C442.935,280.525 441.3,276.71 441.3,272.35 L407.51,272.35 C405.693333,287.61 402.06,301.870833 396.61,315.1325 C391.16,328.394167 383.893333,340.656667 374.81,351.92 L398.245,375.355 C401.515,372.085 405.420833,370.45 409.9625,370.45 C414.504167,370.45 418.41,372.085 421.68,375.355 C424.95,378.625 426.585,382.530833 426.585,387.0725 C426.585,391.614167 424.95,395.52 421.68,398.79 L398.79,421.68 C395.52,424.95 391.614167,426.585 387.0725,426.585 C382.530833,426.585 378.625,424.95 375.355,421.68 C372.085,418.41 370.540833,414.595 370.7225,410.235 C370.904167,405.875 372.448333,402.06 375.355,398.79 L351.375,374.81 C340.111667,383.893333 327.94,391.250833 314.86,396.8825 C301.78,402.514167 287.61,406.238333 272.35,408.055 L272.35,441.3 C276.71,441.3 280.525,442.935 283.795,446.205 C287.065,449.475 288.7,453.29 288.7,457.65 C288.7,462.01 287.065,465.825 283.795,469.095 C280.525,472.365 276.71,474 272.35,474 L239.65,474 Z M256,365 C286.156667,365 311.8625,354.3725 333.1175,333.1175 C354.3725,311.8625 365,286.156667 365,256 C365,225.843333 354.3725,200.1375 333.1175,178.8825 C311.8625,157.6275 286.156667,147 256,147 C225.843333,147 200.1375,157.6275 178.8825,178.8825 C157.6275,200.1375 147,225.843333 147,256 C147,286.156667 157.6275,311.8625 178.8825,333.1175 C200.1375,354.3725 225.843333,365 256,365 Z M233.3825,336.9325 C237.560833,332.754167 239.65,327.576667 239.65,321.4 C239.65,315.223333 237.560833,310.045833 233.3825,305.8675 C229.204167,301.689167 224.026667,299.6 217.85,299.6 C211.673333,299.6 206.495833,301.689167 202.3175,305.8675 C198.139167,310.045833 196.05,315.223333 196.05,321.4 C196.05,327.576667 198.139167,332.754167 202.3175,336.9325 C206.495833,341.110833 211.673333,343.2 217.85,343.2 C224.026667,343.2 229.204167,341.110833 233.3825,336.9325 Z M294.15,343.2 C300.326667,343.2 305.504167,341.110833 309.6825,336.9325 C313.860833,332.754167 315.95,327.576667 315.95,321.4 C315.95,315.223333 313.860833,310.045833 309.6825,305.8675 C305.504167,301.689167 300.326667,299.6 294.15,299.6 C287.973333,299.6 282.795833,301.689167 278.6175,305.8675 C274.439167,310.045833 272.35,315.223333 272.35,321.4 C272.35,327.576667 274.439167,332.754167 278.6175,336.9325 C282.795833,341.110833 287.973333,343.2 294.15,343.2 Z M179.7,277.8 C185.876667,277.8 191.054167,275.710833 195.2325,271.5325 C199.410833,267.354167 201.5,262.176667 201.5,256 C201.5,249.823333 199.410833,244.645833 195.2325,240.4675 C191.054167,236.289167 185.876667,234.2 179.7,234.2 C173.523333,234.2 168.345833,236.289167 164.1675,240.4675 C159.989167,244.645833 157.9,249.823333 157.9,256 C157.9,262.176667 159.989167,267.354167 164.1675,271.5325 C168.345833,275.710833 173.523333,277.8 179.7,277.8 Z M271.5325,271.5325 C275.710833,267.354167 277.8,262.176667 277.8,256 C277.8,249.823333 275.710833,244.645833 271.5325,240.4675 C267.354167,236.289167 262.176667,234.2 256,234.2 C249.823333,234.2 244.645833,236.289167 240.4675,240.4675 C236.289167,244.645833 234.2,249.823333 234.2,256 C234.2,262.176667 236.289167,267.354167 240.4675,271.5325 C244.645833,275.710833 249.823333,277.8 256,277.8 C262.176667,277.8 267.354167,275.710833 271.5325,271.5325 Z M332.3,277.8 C338.476667,277.8 343.654167,275.710833 347.8325,271.5325 C352.010833,267.354167 354.1,262.176667 354.1,256 C354.1,249.823333 352.010833,244.645833 347.8325,240.4675 C343.654167,236.289167 338.476667,234.2 332.3,234.2 C326.123333,234.2 320.945833,236.289167 316.7675,240.4675 C312.589167,244.645833 310.5,249.823333 310.5,256 C310.5,262.176667 312.589167,267.354167 316.7675,271.5325 C320.945833,275.710833 326.123333,277.8 332.3,277.8 Z M233.3825,206.1325 C237.560833,201.954167 239.65,196.776667 239.65,190.6 C239.65,184.423333 237.560833,179.245833 233.3825,175.0675 C229.204167,170.889167 224.026667,168.8 217.85,168.8 C211.673333,168.8 206.495833,170.889167 202.3175,175.0675 C198.139167,179.245833 196.05,184.423333 196.05,190.6 C196.05,196.776667 198.139167,201.954167 202.3175,206.1325 C206.495833,210.310833 211.673333,212.4 217.85,212.4 C224.026667,212.4 229.204167,210.310833 233.3825,206.1325 Z M294.15,212.4 C300.326667,212.4 305.504167,210.310833 309.6825,206.1325 C313.860833,201.954167 315.95,196.776667 315.95,190.6 C315.95,184.423333 313.860833,179.245833 309.6825,175.0675 C305.504167,170.889167 300.326667,168.8 294.15,168.8 C287.973333,168.8 282.795833,170.889167 278.6175,175.0675 C274.439167,179.245833 272.35,184.423333 272.35,190.6 C272.35,196.776667 274.439167,201.954167 278.6175,206.1325 C282.795833,210.310833 287.973333,212.4 294.15,212.4 Z" id="virus" fill="#000000"></path>
    </g>
</svg>